<svg width="78" height="101" viewBox="0 0 78 101" fill="none" xmlns="http://www.w3.org/2000/svg">
<path fill-rule="evenodd" clip-rule="evenodd" d="M15.0024 57.8749V98.3648C19.2918 99.5632 23.8139 100.204 28.4856 100.204C53.4913 100.204 74.2097 81.8476 77.9008 57.8749H57.4959C54.6515 68.6605 45.9518 77.0687 35.0024 79.4941V57.8749H15.0024ZM15.0024 42.5328H35.0024V20.9137C45.9518 23.339 54.6515 31.7472 57.4959 42.5328H77.9008C74.2097 18.5602 53.4913 0.203857 28.4856 0.203857C23.8139 0.203857 19.2918 0.844565 15.0024 2.0429V42.5328Z" fill="#5C61AF"/>
<path fill-rule="evenodd" clip-rule="evenodd" d="M0.00341797 57.8749V98.3648C4.29277 99.5632 8.81485 100.204 13.4866 100.204C38.4923 100.204 59.2107 81.8476 62.9018 57.8749H47.6433C44.2525 73.039 31.0219 84.4885 15.0034 85.1716V57.8749H0.00341797ZM0.00341797 42.5328H15.0034V15.2361C31.0219 15.9192 44.2525 27.3687 47.6433 42.5328H62.9018C59.2107 18.5602 38.4923 0.203857 13.4866 0.203857C8.81485 0.203857 4.29277 0.844565 0.00341797 2.0429V42.5328Z" fill="#858ABA"/>
</svg>
